<?xml version="1.0" encoding="utf-8"?>
<!-- Svg Vector Icons : http://www.onlinewebfonts.com/icon -->
<!DOCTYPE svg PUBLIC "-//W3C//DTD SVG 1.1//EN" "http://www.w3.org/Graphics/SVG/1.1/DTD/svg11.dtd">
<svg version="1.1" xmlns="http://www.w3.org/2000/svg" xmlns:xlink="http://www.w3.org/1999/xlink" x="0px" y="0px" viewBox="0 0 256 256" enable-background="new 0 0 256 256" xml:space="preserve">
<metadata> Svg Vector Icons : http://www.onlinewebfonts.com/icon </metadata>
<g><g><g><path fill="#000000" d="M128,10C62.8,10,10,62.8,10,128c0,65.2,52.8,118,118,118c65.2,0,118-52.8,118-118C246,62.8,193.2,10,128,10z M128,227.6c-55,0-99.6-44.6-99.6-99.6S73,28.4,128,28.4S227.6,73,227.6,128S183,227.6,128,227.6z"/><path fill="#000000" d="M160.2,151.1c-7.4-1.3-17.5-8.4-17.5-11.5v-7.8c0-2.9,3.9-8.4,5.6-13.4c0.2-0.5,1.2,0.1,2.2-1.1c1.9-2.3,2.1-5.8,2.6-7.3c0.7-2.5-2.4-2.6-2.4-2.6s2.3-13.1,0.2-21.3C148.3,74.7,133.7,69,128,69s-20.3,5.7-23,16.9c-2,8.3,0.3,21.3,0.3,21.3s-2.9,0.1-2.2,2.6c0.4,1.6,0.9,5.1,2.8,7.3c1,1.2,1.6,0.7,1.7,1.1c1.7,5,5.6,10.5,5.6,13.4v7.8c0,3.1-10.1,10.3-17.5,11.5c-9.5,1.6-14.2,8.2-11.9,24.5c1.1,8.2,22.6,11.7,43.9,11.4c21.3,0.3,43.2-3.2,44.3-11.4C174.3,159.3,169.7,152.8,160.2,151.1z"/></g></g></g>
</svg>